# xmcd
#
# Track frame offsets: 
#        150
#        21211
#        47879
#        67862
#        86321
#        111389
#        125363
#        146586
#        169798
#
# Disc length: 2460 seconds
#
# Revision: 0
# Processed by: cddbd v1.5.2PL0 Copyright (c) Steve Scherf et al.
# Submitted via: ExactAudioCopy v0.99pb5
#
DISCID=74099a09
DTITLE=Torun Eriksen - Passage
DYEAR=2010
DGENRE=Jazz
TTITLE0=Be Like Him
TTITLE1=Passage From The Past
TTITLE2=Umbrella Song
TTITLE3=Baby And Her Babe
TTITLE4=Edgar's Blues
TTITLE5=Bees And Butterflies
TTITLE6=Draw Me A Heart
TTITLE7=Deuce Parade
TTITLE8=White Lies
EXTD=
EXTT0=
EXTT1=
EXTT2=
EXTT3=
EXTT4=
EXTT5=
EXTT6=
EXTT7=
EXTT8=
PLAYORDER=
